<?xml version="1.0" standalone="no"?>
<!DOCTYPE svg PUBLIC "-//W3C//DTD SVG 20010904//EN"
 "http://www.w3.org/TR/2001/REC-SVG-20010904/DTD/svg10.dtd">
<svg version="1.0" xmlns="http://www.w3.org/2000/svg"
 width="144.000000pt" height="144.000000pt" viewBox="0 0 144.000000 144.000000"
 preserveAspectRatio="xMidYMid meet">

<g transform="translate(0.000000,144.000000) scale(0.100000,-0.100000)"
fill="#000000" stroke="none">
<path d="M403 1403 c9 -2 23 -2 30 0 6 3 -1 5 -18 5 -16 0 -22 -2 -12 -5z"/>
<path d="M95 1393 c-50 -6 -65 -18 -65 -54 0 -19 8 -34 25 -45 30 -20 38 -43
41 -114 3 -89 20 -225 30 -241 5 -8 10 -39 10 -69 3 -98 20 -244 31 -265 6
-11 11 -48 11 -82 0 -34 4 -68 8 -75 5 -7 7 -36 6 -65 -2 -30 3 -67 13 -88 17
-42 21 -170 5 -180 -20 -12 -10 -54 17 -72 24 -16 64 -18 407 -21 425 -4 581
5 603 34 8 11 10 26 6 38 -7 19 -7 94 0 266 2 36 9 76 17 90 13 24 16 52 24
231 2 42 10 87 17 100 13 24 19 81 24 219 2 41 10 92 19 112 9 21 16 62 16 93
0 48 4 59 30 87 62 65 32 96 -101 103 -99 5 -102 0 -8 -10 31 -3 65 -13 75
-21 17 -14 8 -15 -91 -10 -60 3 -349 6 -642 6 -296 0 -535 5 -538 9 -3 5 30
12 72 16 43 3 87 7 98 9 29 5 -113 3 -160 -1z m638 -80 c-7 -2 -19 -2 -25 0
-7 3 -2 5 12 5 14 0 19 -2 13 -5z m257 -8 c0 -2 -92 -51 -204 -107 -113 -56
-203 -106 -200 -110 3 -4 27 6 55 23 28 16 55 27 60 24 5 -4 9 -2 9 4 0 5 42
31 94 57 l93 48 68 -40 c38 -21 68 -43 67 -49 0 -5 -33 -28 -71 -49 -39 -22
-69 -41 -67 -43 1 -2 40 17 85 42 l81 45 40 -26 c22 -15 40 -30 40 -35 0 -4 8
-9 18 -11 10 -2 -28 -30 -100 -72 -65 -38 -118 -70 -118 -72 0 -7 79 34 130
67 102 66 98 65 134 29 27 -27 29 -33 15 -43 -56 -43 -92 -77 -87 -83 4 -3 31
12 60 35 l53 41 18 -21 c19 -23 23 -64 7 -74 -5 -3 -15 -16 -21 -28 -10 -19
-7 -18 18 6 l30 28 -8 -52 c-10 -63 -14 -67 -38 -45 -12 11 -21 14 -26 7 -3
-6 -2 -11 3 -11 6 0 13 -12 16 -26 5 -20 1 -33 -16 -51 l-23 -24 -27 29 c-33
38 -167 132 -230 163 -43 20 -45 24 -30 37 9 7 -50 -21 -133 -64 -82 -43 -160
-83 -172 -89 -13 -5 -23 -13 -23 -17 0 -12 4 -11 67 26 56 31 62 32 89 19 27
-13 27 -13 10 2 -24 19 -20 23 65 68 l65 35 47 -27 c75 -44 75 -45 7 -86 -34
-20 -59 -40 -56 -43 3 -2 11 0 18 6 7 5 36 23 64 40 l51 30 47 -30 c25 -17 46
-36 46 -44 0 -8 6 -11 18 -7 9 3 14 3 10 -2 -4 -4 7 -19 23 -33 l30 -25 -37
-38 c-21 -22 -45 -39 -53 -39 -11 0 -12 -3 -4 -11 9 -9 25 -2 62 25 l51 37 17
-35 c14 -31 15 -39 3 -63 -24 -46 -23 -49 3 -18 l24 29 -6 -45 c-10 -61 -20
-77 -37 -55 -8 11 -14 13 -19 7 -3 -6 -2 -11 2 -11 20 0 12 -57 -11 -79 l-24
-22 -18 23 c-11 13 -45 43 -76 67 -32 24 -58 46 -58 50 0 3 21 20 45 36 49 33
53 40 29 49 -8 3 -13 2 -10 -3 3 -5 -11 -21 -32 -37 -20 -15 -39 -31 -42 -35
-3 -4 -29 7 -58 23 -59 34 -60 33 29 80 45 24 149 97 149 104 0 2 -37 -21 -82
-50 -46 -29 -132 -82 -193 -116 -217 -124 -246 -142 -241 -147 2 -3 32 11 64
31 33 20 62 36 66 36 3 0 24 13 46 29 21 15 53 34 70 41 27 11 34 10 70 -14
22 -14 40 -30 40 -34 0 -4 -21 -20 -47 -35 -25 -15 -43 -30 -40 -33 3 -3 26 8
51 25 24 17 50 31 56 31 15 0 100 -61 100 -71 0 -4 7 -9 15 -11 18 -4 -102
-90 -287 -206 -82 -51 -124 -82 -110 -82 12 0 22 4 22 9 0 5 14 14 30 21 17 7
30 16 30 20 0 4 20 18 45 31 l44 24 28 -22 c15 -11 27 -28 27 -37 -1 -10 6
-16 22 -16 12 0 26 -5 29 -10 3 -6 -3 -10 -14 -10 -12 0 -21 -3 -21 -7 0 -5
53 -8 118 -8 124 0 164 -7 144 -27 -18 -18 -807 -17 -894 1 -109 22 -81 32 67
26 74 -4 135 -3 134 2 0 4 -28 28 -62 52 -37 26 -53 34 -39 19 12 -13 19 -28
15 -31 -13 -14 -81 -7 -94 9 -12 14 -9 20 16 42 17 14 30 28 29 31 -1 8 97 81
108 81 5 0 27 -12 49 -26 55 -34 61 -25 7 11 l-42 28 30 23 c45 37 61 38 109
9 47 -27 51 -33 35 -53 -7 -9 -7 -9 2 -2 20 17 39 11 105 -31 35 -23 66 -39
69 -36 3 3 -82 57 -188 121 -106 63 -209 126 -228 138 -32 20 -34 20 -18 2 14
-16 15 -23 5 -33 -10 -11 -8 -11 8 -1 18 11 29 7 83 -27 l63 -40 -52 -34 c-36
-23 -54 -29 -57 -21 -6 19 -93 82 -104 76 -5 -3 16 -24 47 -46 31 -22 53 -43
48 -47 -26 -22 -83 -61 -88 -61 -3 0 -18 -13 -32 -30 -30 -36 -42 -37 -66 -4
-18 24 -16 64 3 64 5 0 7 7 4 15 -8 20 -24 19 -24 -1 0 -9 -6 -14 -12 -11 -8
2 -13 22 -14 46 l-1 42 35 -33 c19 -18 32 -26 30 -18 -3 8 6 29 21 45 l26 30
-32 -29 c-34 -31 -46 -29 -67 13 -13 25 -13 31 5 60 l19 32 35 -27 c19 -14 35
-31 35 -36 0 -6 6 -5 15 2 13 11 9 16 -25 41 -22 16 -40 33 -40 37 0 18 49 54
62 46 10 -6 10 -4 -1 9 -12 15 -11 17 3 17 9 0 16 4 16 8 0 5 19 22 43 39 l42
31 58 -34 c31 -18 57 -30 57 -26 0 4 -21 19 -46 34 -25 16 -43 32 -40 37 4 5
28 23 54 39 l48 30 60 -35 c32 -19 60 -39 62 -44 2 -5 10 -9 17 -9 7 0 41 -16
75 -35 35 -20 65 -34 67 -31 5 5 -31 26 -175 105 l-112 62 -88 -52 c-116 -70
-170 -108 -202 -143 l-27 -29 -23 33 c-22 31 -22 34 -7 60 18 31 11 49 -9 22
-15 -20 -28 -10 -38 31 -5 20 -2 29 10 34 9 3 20 0 25 -8 5 -8 9 -9 9 -3 0 6
-7 17 -15 24 -19 15 -19 60 -2 84 13 17 16 17 55 -10 23 -16 41 -34 42 -40 0
-5 -16 -25 -35 -44 -32 -31 -37 -50 -14 -50 6 0 7 5 3 11 -7 11 53 79 70 79 5
0 6 -3 3 -6 -5 -6 21 -26 92 -68 8 -6 12 -5 10 2 -2 6 -42 39 -88 74 -109 82
-115 91 -76 123 17 13 36 22 44 19 11 -4 12 -2 1 11 -10 12 -10 15 3 15 8 0
17 3 19 8 2 4 19 19 38 34 l35 27 72 -40 c40 -22 73 -37 73 -35 0 3 -27 21
-60 41 -33 20 -58 41 -55 46 3 5 33 24 66 44 l60 35 80 -41 c43 -23 79 -45 79
-50 0 -5 8 -9 18 -9 9 0 41 -14 71 -30 30 -17 57 -28 59 -25 7 7 12 4 -157 90
l-154 79 -41 -23 c-110 -62 -199 -117 -216 -134 -11 -10 -20 -15 -20 -12 0 4
-12 -7 -26 -24 -31 -38 -47 -39 -69 -5 -15 23 -15 27 0 50 8 13 20 24 26 24 7
0 6 6 -2 17 -12 15 -12 16 3 11 11 -5 18 0 21 13 5 20 -7 26 -18 9 -8 -13 -27
1 -56 41 -19 26 -19 30 -4 59 8 16 18 30 21 30 4 0 25 -14 48 -32 22 -17 43
-33 46 -35 2 -2 -2 -14 -9 -26 -13 -21 -13 -21 12 2 l26 23 -50 39 c-27 22
-49 45 -49 52 0 7 13 26 30 42 27 26 32 27 57 16 l28 -12 -25 22 c-15 12 -18
19 -8 16 10 -4 18 1 21 14 8 31 95 24 171 -12 76 -38 85 -36 18 2 -29 17 -51
33 -48 36 2 3 14 -1 26 -7 15 -8 53 -10 117 -6 52 4 92 3 90 -1 -3 -5 44 -8
104 -8 108 0 108 0 76 17 -38 20 -28 24 11 4 24 -12 32 -11 67 5 42 19 55 22
55 14z m-775 -35 c3 -5 12 -10 18 -10 7 0 6 4 -3 10 -9 6 -10 10 -3 10 26 0
22 -22 -11 -55 -41 -41 -50 -42 -70 -14 -21 31 -2 69 35 69 15 0 31 -4 34 -10z
m886 0 c13 -7 19 -7 19 0 0 12 67 14 74 2 3 -5 -6 -15 -20 -22 -17 -10 -21
-16 -12 -21 7 -4 15 -5 18 -1 13 19 84 52 109 52 44 0 46 -31 4 -80 -25 -29
-39 -38 -46 -31 -16 16 -26 13 -22 -6 1 -10 -3 -25 -9 -33 -6 -8 5 -3 24 13
63 49 79 59 90 52 11 -7 4 -46 -13 -79 -9 -19 -10 -19 -28 3 -10 12 -23 20
-29 16 -6 -4 -2 -14 10 -27 25 -27 25 -37 0 -66 l-19 -23 -33 35 c-39 41 -138
110 -225 155 -83 44 -77 64 17 59 38 -2 66 0 63 5 -6 10 5 9 28 -3z m-951
-121 c-6 -10 -14 -21 -20 -24 -12 -7 -24 39 -16 61 6 15 8 15 26 -1 15 -13 17
-22 10 -36z m40 -169 c-5 -9 -16 -22 -24 -29 -13 -11 -17 -9 -26 14 -12 31
-12 47 -4 70 6 14 11 12 35 -11 21 -20 26 -31 19 -44z m1120 15 c0 -39 -14
-46 -30 -14 -9 15 -8 24 1 35 19 23 29 16 29 -21z m-1121 -184 c-18 -28 -26
-27 -34 9 -9 42 3 57 27 32 17 -17 18 -22 7 -41z m1081 -147 c0 -37 -14 -42
-34 -12 -7 12 -6 21 3 32 21 25 31 19 31 -20z m-1039 -183 c-18 -33 -31 -25
-31 21 l0 42 21 -21 c17 -17 19 -24 10 -42z m903 -119 c15 -18 14 -21 -24 -59
l-40 -40 22 -19 c13 -11 18 -12 10 -3 -10 13 -8 19 11 35 54 48 54 48 72 14
18 -34 15 -63 -8 -95 -13 -17 -17 -18 -33 -5 -12 9 -15 9 -8 1 7 -7 9 -21 7
-32 -5 -16 -15 -19 -70 -19 -59 0 -71 4 -129 41 l-64 42 54 38 c30 22 58 39
63 39 4 0 28 18 53 40 51 45 60 47 84 22z m96 -25 c0 -46 -10 -52 -31 -21 -13
21 -15 30 -6 40 21 24 37 16 37 -19z m-19 -131 c-7 -8 -10 -19 -7 -25 9 -14
-5 -43 -18 -38 -6 3 -22 -5 -35 -17 -13 -11 -22 -15 -20 -9 6 19 82 113 87
108 3 -3 -1 -11 -7 -19z m-937 -49 c-12 -32 -34 -19 -34 20 l0 37 20 -20 c13
-12 18 -27 14 -37z m186 -27 c11 -7 6 -10 -20 -10 -26 0 -31 3 -20 10 8 5 17
10 20 10 3 0 12 -5 20 -10z"/>
<path d="M589 1189 c25 -11 51 -25 58 -31 7 -6 13 -6 13 -1 0 10 -84 53 -103
53 -6 0 8 -10 32 -21z"/>
<path d="M340 1196 c0 -3 9 -10 20 -16 11 -6 20 -8 20 -6 0 3 -9 10 -20 16
-11 6 -20 8 -20 6z"/>
<path d="M404 1151 c11 -11 27 -21 36 -21 10 0 34 -11 55 -25 20 -15 40 -24
43 -20 8 7 6 8 -78 50 -59 30 -71 33 -56 16z"/>
<path d="M814 1076 c11 -9 24 -16 30 -16 12 0 7 5 -24 19 -24 11 -24 11 -6 -3z"/>
<path d="M308 1059 c-14 -9 -15 -8 35 -38 50 -30 55 -23 12 15 -21 19 -39 28
-47 23z"/>
<path d="M828 1034 c-16 -8 -28 -17 -28 -20 0 -2 12 2 28 9 15 8 34 17 42 20
13 5 13 5 0 6 -8 0 -27 -7 -42 -15z"/>
<path d="M1073 871 c-45 -38 -41 -47 7 -15 24 16 46 24 56 20 14 -5 15 -4 4 9
-17 21 -30 18 -67 -14z"/>
<path d="M570 883 c8 -3 36 -16 63 -30 26 -13 47 -21 47 -18 0 8 -98 55 -112
54 -9 0 -8 -3 2 -6z"/>
<path d="M1186 860 c12 -14 19 -31 17 -37 -3 -7 0 -13 6 -13 23 0 18 19 -12
46 -26 23 -28 24 -11 4z"/>
<path d="M413 811 c0 -11 7 -17 14 -14 7 3 39 -9 70 -27 32 -18 51 -26 43 -18
-8 8 -41 29 -72 46 -50 28 -57 29 -55 13z"/>
<path d="M824 714 c-18 -14 -18 -15 5 -4 12 7 32 10 42 7 10 -3 17 -1 13 4 -8
14 -38 11 -60 -7z"/>
<path d="M590 566 c0 -3 14 -12 30 -21 17 -9 30 -13 30 -11 0 3 -13 12 -30 21
-16 9 -30 13 -30 11z"/>
<path d="M1116 562 c-3 -5 1 -9 9 -9 8 0 12 4 9 9 -3 4 -7 8 -9 8 -2 0 -6 -4
-9 -8z"/>
<path d="M1161 524 c9 -10 14 -25 11 -33 -3 -8 1 -12 9 -9 22 7 19 22 -9 42
-27 19 -27 19 -11 0z"/>
<path d="M660 527 c0 -3 12 -12 26 -22 15 -9 23 -12 20 -6 -7 11 -46 35 -46
28z"/>
<path d="M760 466 c0 -3 9 -10 20 -16 11 -6 20 -8 20 -6 0 3 -9 10 -20 16 -11
6 -20 8 -20 6z"/>
<path d="M782 375 c-28 -20 -52 -38 -52 -41 0 -3 19 8 43 24 23 16 51 34 62
40 11 6 15 12 10 12 -6 0 -34 -16 -63 -35z"/>
<path d="M626 275 c-11 -8 -15 -15 -9 -15 6 0 16 7 23 15 16 19 11 19 -14 0z"/>
<path d="M575 240 c-3 -5 0 -7 9 -4 8 3 25 0 38 -6 22 -11 22 -10 4 4 -23 18
-42 20 -51 6z"/>
<path d="M509 193 c-13 -16 -12 -17 4 -4 16 13 21 21 13 21 -2 0 -10 -8 -17
-17z"/>
<path d="M768 103 c18 -2 45 -2 60 0 15 2 0 4 -33 4 -33 0 -45 -2 -27 -4z"/>
<path d="M1105 1195 c-16 -14 -26 -25 -22 -25 14 0 67 34 67 42 0 14 -14 8
-45 -17z"/>
<path d="M1194 1196 c1 -8 5 -18 8 -22 4 -3 5 1 4 10 -1 8 -5 18 -8 22 -4 3
-5 -1 -4 -10z"/>
<path d="M1007 217 c-51 -44 -47 -56 6 -16 61 47 63 49 47 49 -8 -1 -32 -15
-53 -33z"/>
</g>
</svg>
